<svg width="194" height="42" viewBox="0 0 194 42" fill="none" xmlns="http://www.w3.org/2000/svg">
<path d="M81.8101 17.875L74.1023 10.1884C73.8497 9.93676 73.4409 9.93718 73.1888 10.1897C72.9368 10.4423 72.9375 10.8514 73.1901 11.1033L80.4391 18.3323L73.1898 25.5613C72.9373 25.8132 72.9366 26.222 73.1885 26.4746C73.3149 26.6012 73.4805 26.6645 73.646 26.6645C73.8112 26.6645 73.9761 26.6016 74.1023 26.4759L81.8101 18.7896C81.9317 18.6686 82 18.5039 82 18.3323C82 18.1607 81.9316 17.9962 81.8101 17.875Z" fill="#FFBD54"/>
<path d="M0.189883 18.7896L7.89771 26.4761C8.15025 26.7278 8.55912 26.7274 8.81123 26.4748C9.06315 26.2223 9.0625 25.8132 8.80993 25.5613L1.56089 18.3323L8.81019 11.1033C9.06273 10.8514 9.06338 10.4425 8.81149 10.19C8.68511 10.0633 8.51954 10 8.35397 10C8.18882 10 8.0239 10.0629 7.89774 10.1887L0.189883 17.875C0.0682518 17.996 -7.43433e-07 18.1607 -7.28432e-07 18.3323C-7.13431e-07 18.5039 0.0684474 18.6684 0.189883 18.7896Z" fill="#FFBD54"/>
<path d="M161.876 16H164.476V2.66H159.956V4.9H161.876V16Z" fill="#333333"/>
<path d="M192.629 25.662H188.317L187.211 30.562C187.925 30.128 188.569 29.96 189.227 29.96C189.675 29.96 190.193 30.002 190.683 30.436C191.075 30.786 191.229 31.178 191.229 31.724C191.229 32.326 191.005 32.802 190.739 33.082C190.515 33.32 190.095 33.642 189.311 33.642C188.863 33.642 188.415 33.558 187.953 33.292C187.519 33.068 187.253 32.788 186.987 32.452L186.385 34.02C186.721 34.342 187.141 34.636 187.519 34.818C188.233 35.168 189.031 35.21 189.535 35.21C190.543 35.21 191.355 35 192.097 34.258C192.727 33.628 193.049 32.816 193.049 31.822C193.049 31.262 192.965 30.324 192.223 29.582C191.677 29.036 190.823 28.644 189.815 28.644C189.577 28.644 189.367 28.658 189.185 28.7L189.521 27.23H192.629V25.662Z" fill="#949494"/>
<line x1="187.402" y1="5.29792" x2="164.402" y2="36.2979" stroke="#333333"/>
</svg>
