<svg width="306" height="422" viewBox="0 0 306 422" fill="none" xmlns="http://www.w3.org/2000/svg">
<path d="M0 6.30144C0 3.54002 2.23858 1.30144 5 1.30144H300C302.761 1.30144 305 3.54001 305 6.30144V421.301H0V6.30144Z" fill="white"/>
<g opacity="0.05">
<path d="M248.034 80.9799C247.948 71.9945 243.353 63.7782 235.743 59.0021C228.132 54.226 218.736 53.6619 210.608 57.4924L191.02 66.7213C187.771 68.2522 185.156 70.7364 183.459 73.9028C181.761 77.0699 181.142 80.6224 181.667 84.1781C182.194 87.7325 183.816 90.9541 186.358 93.4947C188.899 96.0352 192.123 97.6546 195.679 98.1786L195.918 98.2129C204.827 99.5929 212.823 104.65 217.887 112.116C219.194 114.041 220.854 115.642 222.783 116.853C223.832 117.511 224.961 118.054 226.156 118.472C229.549 119.657 233.155 119.716 236.586 118.645C240.016 117.573 242.947 115.471 245.062 112.565C247.176 109.659 248.276 106.224 248.242 102.631L248.034 80.9799Z" fill="#78C0DE"/>
<path d="M203.388 52.9339C207.042 53.6507 210.768 52.6818 213.879 50.2051C216.841 47.8486 218.896 44.3802 219.667 40.4375C220.435 36.4964 219.837 32.5098 217.982 29.211C216.032 25.7464 212.947 23.4448 209.296 22.7331C201.955 21.2955 194.655 26.9005 193.021 35.2316C191.728 41.8674 194.416 48.2553 199.273 51.3037C200.513 52.0821 201.895 52.6426 203.388 52.9339Z" fill="#78C0DE"/>
<path d="M230.184 52.8892C237.577 57.5289 247.893 54.4509 253.179 46.0278C258.467 37.6025 256.753 26.9736 249.36 22.3338C241.967 17.6945 231.652 20.7743 226.364 29.1996C221.078 37.6228 222.792 48.2499 230.184 52.8892Z" fill="#78C0DE"/>
<path d="M250.985 71.1741L250.986 71.1745C251.886 72.2657 252.933 73.1742 254.088 73.8993C259.48 77.2829 267.197 76.6561 272.987 71.8834C276.32 69.1364 278.548 65.4179 279.259 61.4137C280.005 57.2222 279.021 53.2229 276.489 50.1517C273.957 47.08 270.218 45.3519 265.961 45.284C261.895 45.219 257.82 46.6971 254.488 49.445C247.458 55.2411 245.887 64.9888 250.985 71.1741Z" fill="#78C0DE"/>
<path d="M280.34 87.1113L280.339 87.1079C277.604 80.142 268.955 76.9892 261.055 80.0808C253.159 83.1779 248.952 91.3641 251.677 98.328C252.671 100.869 254.452 102.903 256.697 104.312C260.611 106.768 265.935 107.325 270.962 105.36C278.858 102.263 283.065 94.077 280.34 87.1113Z" fill="#78C0DE"/>
</g>
</svg>
